<?xml version="1.0" encoding="UTF-8"?>
<svg width="45px" height="32px" viewBox="0 0 45 32" version="1.1" xmlns="http://www.w3.org/2000/svg" xmlns:xlink="http://www.w3.org/1999/xlink">
    <title></title>
    <g id="Smart-Home-Desktop-" stroke="none" stroke-width="1" fill="none" fill-rule="evenodd">
        <g id="Smart-home-mosaic-overlay" transform="translate(-507.000000, -490.000000)" fill="#006AE3" fill-rule="nonzero">
            <g id="hero" transform="translate(-37.000000, 180.000000)">
                <g id="CTA" transform="translate(37.000000, 0.000000)">
                    <g id="Group-5" transform="translate(278.000000, 100.000000)">
                        <g id="01" transform="translate(146.000000, 210.000000)">
                            <path d="M126.031147,11.2499734 C126.265521,11.2499734 126.453021,11.156224 126.593646,10.9687241 L126.593646,10.9687241 L127.788956,9.77341447 C127.92958,9.6327898 127.999893,9.44528989 127.999893,9.21091581 C127.999893,8.97654172 127.906143,8.76560473 127.718643,8.57810482 C123.593653,4.82811411 118.835852,2.29687015 113.44524,0.984372921 C108.148378,-0.328124307 102.851515,-0.328124307 97.5546528,0.984372921 C92.1640403,2.29687015 87.4062399,4.82811411 83.2812493,8.57810482 C83.0937494,8.76560473 83,8.97654172 83,9.21091581 C83,9.44528989 83.0703123,9.6327898 83.210937,9.77341447 L83.210937,9.77341447 L84.4062466,10.9687241 C84.5468713,11.156224 84.7343712,11.2499734 84.9687453,11.2499734 C85.2031194,11.2499734 85.4140564,11.1796611 85.6015563,11.0390364 C89.2577976,7.6640445 93.5234128,5.39061277 98.3984008,4.21874021 C103.132764,3.04686765 107.867129,3.04686765 112.601492,4.21874021 C117.47648,5.39061277 121.742095,7.6640445 125.398336,11.0390364 C125.585836,11.1796611 125.796773,11.2499734 126.031147,11.2499734 Z M118.156166,19.4765163 C118.39054,19.4765163 118.57804,19.406204 118.718665,19.2655793 L118.718665,19.2655793 L119.913974,17.9999574 C120.054599,17.8593327 120.124911,17.6601148 120.124911,17.4023025 C120.124911,17.1444903 120.031162,16.9452724 119.843662,16.8046477 C117.171794,14.3671532 114.113207,12.7265324 110.667903,11.8827844 C107.222598,11.0390364 103.777294,11.0390364 100.33199,11.8827844 C96.8866856,12.7265324 93.8280992,14.3671532 91.1562306,16.8046477 C90.9687306,16.9452724 90.8749812,17.1444903 90.8749812,17.4023025 C90.8749812,17.6601148 90.9452936,17.8593327 91.0859182,17.9999574 L91.0859182,17.9999574 L92.2812279,19.2655793 C92.4218525,19.406204 92.6093524,19.4765163 92.8437265,19.4765163 C93.0781006,19.4765163 93.2656005,19.406204 93.4062252,19.2655793 C95.6562198,17.2499588 98.234339,15.8788683 101.140582,15.1523079 C104.046824,14.4257475 106.953068,14.4257475 109.859311,15.1523079 C112.765554,15.8788683 115.343673,17.2499588 117.593668,19.2655793 C117.734292,19.406204 117.921792,19.4765163 118.156166,19.4765163 Z M105.499946,31.4999252 C107.046818,31.4999252 108.371033,30.9491456 109.472593,29.8475854 C110.574153,28.7460251 111.124933,27.4218099 111.124933,25.8749386 C111.124933,24.3280673 110.574153,23.003852 109.472593,21.9022918 C108.371033,20.8007316 107.046818,20.249952 105.499946,20.249952 C103.953075,20.249952 102.62886,20.8007316 101.5273,21.9022918 C100.425739,23.003852 99.8749598,24.3280673 99.8749598,25.8749386 C99.8749598,27.4218099 100.425739,28.7460251 101.5273,29.8475854 C102.62886,30.9491456 103.953075,31.4999252 105.499946,31.4999252 Z M105.499946,28.1249332 C104.890572,28.1249332 104.36323,27.9022771 103.917919,27.4569661 C103.472608,27.011655 103.249952,26.4843125 103.249952,25.8749386 C103.249952,25.2655647 103.472608,24.7382222 103.917919,24.2929111 C104.36323,23.8476 104.890572,23.6249439 105.499946,23.6249439 C106.10932,23.6249439 106.636663,23.8476 107.081974,24.2929111 C107.527285,24.7382222 107.749941,25.2655647 107.749941,25.8749386 C107.749941,26.4843125 107.527285,27.011655 107.081974,27.4569661 C106.636663,27.9022771 106.10932,28.1249332 105.499946,28.1249332 Z" id=""></path>
                        </g>
                    </g>
                </g>
            </g>
        </g>
    </g>
</svg>