<?xml version="1.0" encoding="UTF-8"?>
<svg width="41px" height="36px" viewBox="0 0 41 36" version="1.1" xmlns="http://www.w3.org/2000/svg" xmlns:xlink="http://www.w3.org/1999/xlink">
    <title></title>
    <g id="Smart-Home-Desktop-" stroke="none" stroke-width="1" fill="none" fill-rule="evenodd">
        <g id="Smart-home-mosaic-overlay" transform="translate(-763.000000, -490.000000)" fill="#006AE3" fill-rule="nonzero">
            <g id="hero" transform="translate(-37.000000, 180.000000)">
                <g id="CTA" transform="translate(37.000000, 0.000000)">
                    <g id="Group-5" transform="translate(278.000000, 100.000000)">
                        <g id="3-icons-blue-banner" transform="translate(146.000000, 210.000000)">
                            <g id="" transform="translate(254.000000, 0.000000)">
                                <path d="M102.983216,35.9999142 C103.311341,35.9999142 103.580871,35.8944457 103.791808,35.6835087 C104.002745,35.4725717 104.108213,35.2030414 104.108213,34.8749169 L104.108213,34.8749169 L104.108213,31.4999249 L108.608203,31.4999249 L108.608203,34.8749169 C108.608203,35.2030414 108.713671,35.4725717 108.924608,35.6835087 C109.135545,35.8944457 109.405075,35.9999142 109.7332,35.9999142 L109.7332,35.9999142 L117.608181,35.9999142 C117.936306,35.9999142 118.205836,35.8944457 118.416773,35.6835087 C118.62771,35.4725717 118.733179,35.2030414 118.733179,34.8749169 L118.733179,34.8749169 L118.733179,29.1796179 C119.623802,28.5233699 120.350362,27.7968084 120.912861,26.9999356 L120.912861,26.9999356 L124.358165,26.9999356 C124.68629,26.9999356 124.95582,26.8944671 125.166757,26.6835301 C125.377694,26.4725931 125.483163,26.2030629 125.483163,25.8749383 L125.483163,25.8749383 L125.483163,16.8749598 C125.483163,16.5468352 125.377694,16.2773049 125.166757,16.0663679 C124.95582,15.8554309 124.68629,15.7499624 124.358165,15.7499624 L124.358165,15.7499624 L122.319108,15.7499624 C121.522235,13.9687171 120.326925,12.4921581 118.733179,11.3202855 L118.733179,11.3202855 L118.733179,6.74998391 L117.608181,6.74998391 C115.592561,6.74998391 113.694128,7.35935781 111.912882,8.57810455 L111.912882,8.57810455 L111.983195,7.87498122 C111.983195,6.46873458 111.631633,5.15623735 110.92851,3.93749061 C110.225386,2.71874388 109.264451,1.75780831 108.045704,1.05468499 C106.826957,0.351561662 105.51446,0 104.108213,0 C102.701967,0 101.38947,0.351561662 100.170723,1.05468499 C98.9519761,1.75780831 97.9910406,2.71874388 97.2879172,3.93749061 C96.5847939,5.15623735 96.2332322,6.46873458 96.2332322,7.87498122 C96.2332322,8.48435513 96.3269817,9.14060321 96.5144816,9.84372653 C94.7801104,10.5468499 93.3035514,11.6249719 92.0848046,13.0780938 C90.8660579,14.5312157 90.0691841,16.1718364 89.6941853,17.9999571 L89.6941853,17.9999571 L88.9207497,17.9999571 C88.4051263,17.9999571 87.9715332,17.8007392 87.6199715,17.4023023 C87.2684099,17.0038654 87.1629414,16.5233981 87.303566,15.9608994 C87.3504413,15.5859007 87.5379401,15.2694952 87.8660647,15.011683 C88.1941893,14.7538707 88.569188,14.6249651 88.991062,14.6249651 L88.991062,14.6249651 L89.0613743,14.6249651 C89.1551238,14.6249651 89.2488743,14.5780899 89.3426237,14.4843405 C89.4363731,14.390591 89.4832483,14.2968406 89.4832483,14.2030911 L89.4832483,14.2030911 L89.4832483,12.7968445 C89.4832483,12.7030951 89.4363731,12.6093446 89.3426237,12.5155952 C89.2488743,12.4218457 89.1551238,12.3749705 89.0613743,12.3749705 C88.0301264,12.3749705 87.1277852,12.7030951 86.3543496,13.3593431 C85.5809139,14.0155912 85.1473208,14.8359021 85.0535714,15.8202748 C84.8660715,16.9921473 85.170759,18.0233942 85.9676317,18.9140174 C86.7645045,19.8046406 87.7488771,20.2499517 88.9207497,20.2499517 L88.9207497,20.2499517 L89.4832483,20.2499517 C89.4832483,22.0311971 89.8816852,23.7069751 90.678558,25.2772835 C91.4754307,26.8475919 92.576991,28.14837 93.9832376,29.1796179 L93.9832376,29.1796179 L93.9832376,34.8749169 C93.9832376,35.2030414 94.0887061,35.4725717 94.2996431,35.6835087 C94.5105801,35.8944457 94.7801104,35.9999142 95.1082349,35.9999142 L95.1082349,35.9999142 L102.983216,35.9999142 Z M99.8191612,9.07029087 C99.6785365,8.64841688 99.6082242,8.24997997 99.6082242,7.87498122 C99.6082242,6.65623449 100.053535,5.6015495 100.944159,4.71092627 C101.834782,3.82030303 102.889467,3.37499195 104.108213,3.37499195 C105.32696,3.37499195 106.381645,3.82030303 107.272268,4.71092627 C108.162892,5.6015495 108.608203,6.65623449 108.608203,7.87498122 C108.608203,8.24997997 108.561327,8.62497979 108.467578,8.99997854 L108.467578,8.99997854 L100.733222,8.99997854 L99.8191612,9.07029087 Z M100.733222,32.6249222 L97.3582296,32.6249222 L97.3582296,27.492122 L97.0066679,27.281185 C95.8816706,26.4843122 95.0379226,25.7108766 94.4754239,24.960878 C93.3973019,23.5546313 92.8582403,21.9843229 92.8582403,20.2499517 C92.8582403,18.8437051 93.209802,17.5312078 93.9129253,16.3124611 C94.6160486,15.0937144 95.5769842,14.1327788 96.7957309,13.4296555 C98.0144776,12.7265322 99.3269749,12.3749705 100.733222,12.3749705 L100.733222,12.3749705 L112.475381,12.3749705 L112.75663,12.1640335 C113.741003,11.3671608 114.608188,10.8280992 115.358187,10.5468499 L115.358187,10.5468499 L115.358187,12.9374692 C116.436309,13.7812171 117.16287,14.390591 117.537869,14.7655898 C118.053492,15.1874638 118.451929,15.6796501 118.733179,16.2421488 C118.967553,16.6171475 119.342553,17.4140213 119.858176,18.6327681 L119.858176,18.6327681 L120.069113,19.1249544 L122.108171,19.1249544 L122.108171,23.6249437 L119.225365,23.6249437 L118.803491,24.1874423 C118.240992,24.9843151 117.807399,25.5233766 117.502713,25.804626 C117.198026,26.0858753 116.506621,26.648374 115.428499,27.492122 L115.428499,27.492122 L115.358187,27.492122 L115.358187,32.6249222 L111.983195,32.6249222 L111.983195,28.1249329 L100.733222,28.1249329 L100.733222,32.6249222 Z M115.358187,20.2499517 C115.686311,20.2499517 115.955841,20.1444832 116.166778,19.9335462 C116.377715,19.7226092 116.483184,19.453079 116.483184,19.1249544 C116.483184,18.7968298 116.377715,18.5272996 116.166778,18.3163626 C115.955841,18.1054256 115.686311,17.9999571 115.358187,17.9999571 C115.030062,17.9999571 114.760532,18.1054256 114.549595,18.3163626 C114.338658,18.5272996 114.233189,18.7968298 114.233189,19.1249544 C114.233189,19.453079 114.338658,19.7226092 114.549595,19.9335462 C114.760532,20.1444832 115.030062,20.2499517 115.358187,20.2499517 Z"></path>
                            </g>
                        </g>
                    </g>
                </g>
            </g>
        </g>
    </g>
</svg>