<?xml version="1.0" encoding="UTF-8"?>
<svg width="34px" height="36px" viewBox="0 0 34 36" version="1.1" xmlns="http://www.w3.org/2000/svg" xmlns:xlink="http://www.w3.org/1999/xlink">
    <title></title>
    <g id="Smart-Home-Desktop-" stroke="none" stroke-width="1" fill="none" fill-rule="evenodd">
        <g id="Smart-home-mosaic-overlay" transform="translate(-1019.000000, -490.000000)" fill="#006AE3" fill-rule="nonzero">
            <g id="hero" transform="translate(-37.000000, 180.000000)">
                <g id="CTA" transform="translate(37.000000, 0.000000)">
                    <g id="Group-5" transform="translate(278.000000, 100.000000)">
                        <g id="3-icons-blue-banner" transform="translate(146.000000, 210.000000)">
                            <g id="01" transform="translate(507.000000, 0.000000)">
                                <path d="M106.140582,35.7186646 C108.484326,34.7811672 110.73432,33.2577329 112.890566,31.148363 C115.468685,28.617119 117.53118,25.664001 119.078051,22.2890091 C120.859296,18.2577691 121.74992,13.8280921 121.74992,8.99997827 C121.74992,8.29685495 121.56242,7.66404396 121.187421,7.1015453 C120.812422,6.53904664 120.296798,6.14060973 119.64055,5.90623565 L106.140582,0.281249061 C105.296834,-0.0937496871 104.453086,-0.0937496871 103.609338,0.281249061 L90.10937,5.90623565 C89.4531219,6.14060973 88.9374974,6.53904664 88.5624987,7.1015453 C88.1874999,7.66404396 88,8.29685495 88,8.99997827 C88,13.4062181 88.7968727,17.5546457 90.3906193,21.4452611 C91.7968659,24.9140025 93.7421742,27.9374328 96.2265429,30.515552 C98.4765375,32.9061713 100.937469,34.6405425 103.609338,35.7186646 C104.453086,36.0936633 105.296834,36.0936633 106.140582,35.7186646 Z M104.87496,32.6249219 C102.531216,31.6405493 100.351533,30.0468027 98.3359129,27.8436833 C96.2265429,25.5468135 94.562484,22.8515077 93.3437373,19.7577651 C92.03124,16.3827732 91.374992,12.7968442 91.374992,8.99997827 L104.87496,3.37499169 L118.374928,8.99997827 C118.374928,12.8905936 117.695241,16.5468349 116.33587,19.9687021 C115.117123,23.0155695 113.429627,25.6874381 111.273382,27.984308 C109.304637,30.1405532 107.17183,31.6874245 104.87496,32.6249219 Z M104.87496,28.828056 L104.87496,7.03123297 L94.8202962,11.2499729 C95.1015456,15.1874635 96.1796676,18.7030801 98.0546635,21.7968228 C99.7890348,24.7499407 102.062466,27.0936848 104.87496,28.828056 Z" id=""></path>
                            </g>
                        </g>
                    </g>
                </g>
            </g>
        </g>
    </g>
</svg>